<svg width="44" height="44" viewBox="0 0 44 44" fill="none" xmlns="http://www.w3.org/2000/svg">
<path d="M23.8333 5.96274C27.7983 4.83302 32.1617 5.76881 35.1965 8.80353C38.2312 11.8382 39.167 16.2017 38.0372 20.1667M27.3843 10.9341C28.8004 10.6521 30.4316 11.1406 31.6455 12.3545C32.8593 13.5684 33.3479 15.1995 33.0659 16.6157" stroke="#00D008" stroke-width="1.5" stroke-linecap="round" stroke-linejoin="round"/>
<path d="M27.8031 38.2864C29.4192 38.5712 31.0808 38.5712 32.6969 38.2864C35.2946 37.8287 37.3869 36.0847 38.1076 33.7766L38.2605 33.287C38.4194 32.7781 38.5 32.2518 38.5 31.7229C38.5 29.3906 36.4143 27.5 33.8414 27.5H26.6586C24.0857 27.5 22 29.3906 22 31.7229C22 32.2518 22.0806 32.7781 22.2395 33.287L22.3924 33.7766C23.1131 36.0847 25.2054 37.8287 27.8031 38.2864ZM27.8031 38.2864C16.5769 36.2064 7.79365 27.4231 5.71359 16.1969M5.71359 16.1969C5.4288 14.5808 5.4288 12.9192 5.71359 11.3031C6.17133 8.70543 7.91531 6.61307 10.2234 5.89236L10.713 5.73949C11.2219 5.58059 11.7482 5.5 12.2771 5.5C14.6094 5.5 16.5 7.58574 16.5 10.1586L16.5 17.3414C16.5 19.9143 14.6094 22 12.2771 22C11.7482 22 11.2219 21.9194 10.713 21.7605L10.2234 21.6076C7.91531 20.8869 6.17133 18.7946 5.71359 16.1969Z" stroke="white" stroke-width="1.5"/>
</svg>
