<svg width="32" height="32" viewBox="0 0 32 32" fill="none" xmlns="http://www.w3.org/2000/svg">
<path d="M16.0002 9.59048C12.4533 9.59048 9.59078 12.453 9.59078 15.9999C9.59078 19.5467 12.4533 22.4092 16.0002 22.4092C19.547 22.4092 22.4095 19.5467 22.4095 15.9999C22.4095 12.453 19.547 9.59048 16.0002 9.59048ZM16.0002 20.1655C13.7064 20.1655 11.8345 18.2936 11.8345 15.9999C11.8345 13.7061 13.7064 11.8342 16.0002 11.8342C18.2939 11.8342 20.1658 13.7061 20.1658 15.9999C20.1658 18.2936 18.2939 20.1655 16.0002 20.1655ZM22.672 7.83423C21.8439 7.83423 21.1752 8.50298 21.1752 9.3311C21.1752 10.1592 21.8439 10.828 22.672 10.828C23.5002 10.828 24.1689 10.1624 24.1689 9.3311C24.1692 9.13446 24.1306 8.9397 24.0555 8.75798C23.9803 8.57626 23.8701 8.41115 23.731 8.2721C23.592 8.13306 23.4269 8.02281 23.2452 7.94767C23.0634 7.87253 22.8687 7.83398 22.672 7.83423ZM28.4939 15.9999C28.4939 14.2749 28.5095 12.5655 28.4127 10.8436C28.3158 8.8436 27.8595 7.0686 26.397 5.6061C24.9314 4.14048 23.1595 3.68736 21.1595 3.59048C19.4345 3.49361 17.7252 3.50923 16.0033 3.50923C14.2783 3.50923 12.5689 3.49361 10.847 3.59048C8.84703 3.68736 7.07203 4.1436 5.60952 5.6061C4.1439 7.07173 3.69077 8.8436 3.5939 10.8436C3.49702 12.5686 3.51265 14.278 3.51265 15.9999C3.51265 17.7217 3.49702 19.4342 3.5939 21.1561C3.69077 23.1561 4.14702 24.9311 5.60952 26.3936C7.07515 27.8592 8.84703 28.3123 10.847 28.4092C12.572 28.5061 14.2814 28.4905 16.0033 28.4905C17.7283 28.4905 19.4377 28.5061 21.1595 28.4092C23.1595 28.3123 24.9345 27.8561 26.397 26.3936C27.8627 24.928 28.3158 23.1561 28.4127 21.1561C28.5127 19.4342 28.4939 17.7249 28.4939 15.9999ZM25.7439 23.3686C25.5158 23.9373 25.2408 24.3623 24.8002 24.7998C24.3595 25.2405 23.9377 25.5155 23.3689 25.7436C21.7252 26.3967 17.822 26.2498 16.0002 26.2498C14.1783 26.2498 10.272 26.3967 8.62828 25.7467C8.05953 25.5186 7.63453 25.2436 7.19703 24.803C6.7564 24.3623 6.4814 23.9405 6.25328 23.3717C5.60327 21.7248 5.75015 17.8217 5.75015 15.9999C5.75015 14.178 5.60327 10.2717 6.25328 8.62798C6.4814 8.05923 6.7564 7.63423 7.19703 7.19673C7.63765 6.75923 8.05953 6.4811 8.62828 6.25298C10.272 5.60298 14.1783 5.74985 16.0002 5.74985C17.822 5.74985 21.7283 5.60298 23.372 6.25298C23.9408 6.4811 24.3658 6.7561 24.8033 7.19673C25.2439 7.63735 25.5189 8.05923 25.747 8.62798C26.397 10.2717 26.2502 14.178 26.2502 15.9999C26.2502 17.8217 26.397 21.7248 25.7439 23.3686Z" fill="white"/>
</svg>
