<svg width="32" height="32" viewBox="0 0 32 32" fill="none" xmlns="http://www.w3.org/2000/svg">
<path d="M28.9127 3.96245C28.6352 3.72736 28.2993 3.57183 27.9405 3.51241C27.5817 3.45298 27.2136 3.49187 26.8752 3.62495L3.80017 12.6874C3.39544 12.8416 3.05261 13.1246 2.82449 13.4928C2.59636 13.8609 2.49558 14.2939 2.53767 14.7249C2.57522 15.1558 2.75144 15.5629 3.03991 15.8852C3.32838 16.2075 3.71355 16.4276 4.13767 16.5124L10.0002 17.6749V24.9999C9.99996 25.3962 10.1175 25.7836 10.3378 26.113C10.5581 26.4424 10.8713 26.6989 11.2377 26.8499C11.4801 26.9475 11.7388 26.9984 12.0002 26.9999C12.2628 27.0009 12.5231 26.9494 12.7656 26.8485C13.0081 26.7476 13.2281 26.5994 13.4127 26.4124L16.6627 23.1749L21.5752 27.4999C21.9378 27.8198 22.4041 27.9974 22.8877 27.9999C23.1003 28.0043 23.312 27.9704 23.5127 27.8999C23.8425 27.7956 24.1394 27.6069 24.374 27.3526C24.6086 27.0983 24.7727 26.7871 24.8502 26.4499L29.5502 5.92495C29.6323 5.57078 29.6164 5.20092 29.504 4.85513C29.3917 4.50935 29.1873 4.20073 28.9127 3.96245ZM10.7627 15.7874L4.53767 14.5499L21.9877 7.68745L10.7627 15.7874ZM12.0002 24.9999V19.0749L15.1502 21.8499L12.0002 24.9999ZM22.9002 25.9999L12.6002 16.9374L27.4377 6.22495L22.9002 25.9999Z" fill="white"/>
</svg>
