<svg width="32" height="32" viewBox="0 0 32 32" fill="none" xmlns="http://www.w3.org/2000/svg">
<path d="M20.55 15.1623L14.55 11.1623C14.3981 11.0658 14.2238 11.0105 14.0441 11.0017C13.8644 10.9929 13.6855 11.0311 13.525 11.1123C13.3651 11.1986 13.2318 11.3268 13.1393 11.4832C13.0468 11.6395 12.9986 11.8181 13 11.9998V19.9998C12.9986 20.1815 13.0468 20.3601 13.1393 20.5164C13.2318 20.6728 13.3651 20.801 13.525 20.8873C13.6725 20.9612 13.8351 20.9997 14 20.9998C14.1949 20.9977 14.3853 20.9415 14.55 20.8373L20.55 16.8373C20.6893 16.7464 20.8037 16.6223 20.8829 16.476C20.9621 16.3298 21.0036 16.1661 21.0036 15.9998C21.0036 15.8335 20.9621 15.6698 20.8829 15.5236C20.8037 15.3774 20.6893 15.2532 20.55 15.1623ZM15 18.1373V13.8623L18.2 15.9998L15 18.1373ZM29.2875 8.72481C29.1726 8.26396 28.9477 7.83785 28.632 7.48299C28.3163 7.12812 27.9193 6.8551 27.475 6.68731C23.2 5.03731 16.375 5.04981 16 5.04981C15.625 5.04981 8.8 5.03731 4.525 6.68731C4.08068 6.8551 3.68366 7.12812 3.36799 7.48299C3.05231 7.83785 2.82739 8.26396 2.7125 8.72481C2.3875 9.96231 2 12.2373 2 15.9998C2 19.7623 2.3875 22.0373 2.7125 23.2748C2.82739 23.7357 3.05231 24.1618 3.36799 24.5166C3.68366 24.8715 4.08068 25.1445 4.525 25.3123C8.625 26.8998 15.05 26.9498 15.9125 26.9498H16.0875C16.95 26.9498 23.375 26.8998 27.475 25.3123C27.9193 25.1445 28.3163 24.8715 28.632 24.5166C28.9477 24.1618 29.1726 23.7357 29.2875 23.2748C29.6125 22.0373 30 19.7623 30 15.9998C30 12.2373 29.6125 9.96231 29.2875 8.72481ZM27.35 22.7748C27.3131 22.9261 27.2405 23.0663 27.1383 23.1837C27.0361 23.3011 26.9072 23.3924 26.7625 23.4498C22.8 24.9748 16.075 24.9498 16 24.9498H15.9875C15.925 24.9498 9.2 24.9748 5.2375 23.4498C5.0928 23.3924 4.96395 23.3011 4.86174 23.1837C4.75953 23.0663 4.68692 22.9261 4.65 22.7748C4.35 21.6373 4 19.5498 4 15.9998C4 12.4498 4.35 10.3623 4.65 9.22481C4.68692 9.07356 4.75953 8.93336 4.86174 8.81593C4.96395 8.69849 5.0928 8.60724 5.2375 8.54981C9.05 7.08731 15.45 7.04981 15.975 7.04981H16C16.075 7.04981 22.8 7.02481 26.7625 8.54981C26.9072 8.60724 27.0361 8.69849 27.1383 8.81593C27.2405 8.93336 27.3131 9.07356 27.35 9.22481C27.65 10.3623 28 12.4498 28 15.9998C28 19.5498 27.65 21.6373 27.35 22.7748Z" fill="white"/>
</svg>
